

    <svg viewBox="0 0 20 20" xmlns="http://www.w3.org/2000/svg">
      <path
        d="M7.90033 17.2416C7.48366 17.2416 7.192 17.1 7.017 16.9666C6.68366 16.725 6.16699 16.1 6.49199 14.7L6.96697 12.65C7.00864 12.475 6.91698 12.1583 6.79198 12.025L5.13365 10.3666C4.25865 9.49164 4.33365 8.7333 4.45031 8.3583C4.56698 7.9833 4.95031 7.32496 6.16698 7.11663L8.29199 6.76663C8.45033 6.74163 8.70865 6.54997 8.77532 6.4083L9.95032 4.0583C10.517 2.92497 11.267 2.7583 11.667 2.7583C12.067 2.7583 12.817 2.92497 13.3836 4.0583L14.5587 6.4083C14.6337 6.54997 14.8836 6.74163 15.042 6.76663L17.167 7.11663C18.3837 7.31663 18.767 7.9833 18.8837 8.3583C19.0003 8.7333 19.0753 9.49164 18.2003 10.3666L16.542 12.025C16.417 12.15 16.3253 12.475 16.367 12.65L16.842 14.7C17.167 16.1083 16.6503 16.725 16.317 16.9666C15.9836 17.2083 15.242 17.5166 13.992 16.775L12.0003 15.5916C11.8336 15.4916 11.4836 15.4916 11.317 15.5916L9.32532 16.775C8.75032 17.125 8.26699 17.2416 7.90033 17.2416ZM11.667 4.0083C11.5336 4.0083 11.292 4.16663 11.067 4.61663L9.89198 6.96664C9.64198 7.47497 9.05032 7.90831 8.49199 7.99997L6.367 8.34997C5.892 8.43331 5.67533 8.60831 5.63366 8.74164C5.59199 8.87497 5.66698 9.14164 6.00864 9.48331L7.66699 11.1416C8.09199 11.5666 8.31699 12.3416 8.18366 12.925L7.70865 14.975C7.56698 15.5666 7.65864 15.8833 7.75031 15.9583C7.84197 16.025 8.17531 16.0166 8.69198 15.7L10.692 14.5166C11.2503 14.1833 12.092 14.1833 12.642 14.5166L14.6336 15.7C15.1586 16.0083 15.492 16.025 15.5837 15.9583C15.6753 15.8916 15.767 15.575 15.6253 14.975L15.1503 12.925C15.017 12.3333 15.2336 11.5666 15.667 11.1416L17.3253 9.48331C17.667 9.14164 17.742 8.86664 17.7003 8.74164C17.6586 8.61664 17.442 8.43331 16.967 8.34997L14.842 7.99997C14.2836 7.90831 13.692 7.47497 13.442 6.96664L12.267 4.61663C12.042 4.16663 11.8003 4.0083 11.667 4.0083Z"
        fill="#0D253F"
      ></path>
      <path
        d="M6.66699 4.79175H1.66699C1.32533 4.79175 1.04199 4.50841 1.04199 4.16675C1.04199 3.82508 1.32533 3.54175 1.66699 3.54175H6.66699C7.00866 3.54175 7.29199 3.82508 7.29199 4.16675C7.29199 4.50841 7.00866 4.79175 6.66699 4.79175Z"
        fill="#197EEF"
      ></path>
      <path
        d="M4.16699 16.4583H1.66699C1.32533 16.4583 1.04199 16.1749 1.04199 15.8333C1.04199 15.4916 1.32533 15.2083 1.66699 15.2083H4.16699C4.50866 15.2083 4.79199 15.4916 4.79199 15.8333C4.79199 16.1749 4.50866 16.4583 4.16699 16.4583Z"
        fill="#197EEF"
      ></path>
      <path
        d="M2.50033 10.625H1.66699C1.32533 10.625 1.04199 10.3417 1.04199 10C1.04199 9.65833 1.32533 9.375 1.66699 9.375H2.50033C2.84199 9.375 3.12533 9.65833 3.12533 10C3.12533 10.3417 2.84199 10.625 2.50033 10.625Z"
        fill="#197EEF"
      ></path>
    </svg>
    